<svg xmlns="http://www.w3.org/2000/svg" xmlns:xlink="http://www.w3.org/1999/xlink" width="500" zoomAndPan="magnify" viewBox="0 0 375 374.999991" height="500" preserveAspectRatio="xMidYMid meet" version="1.0"><defs><g/><clipPath id="d24053cd01"><path d="M 37.5 37.5 L 74 37.5 L 74 44 L 37.5 44 Z M 37.5 37.5 " clip-rule="nonzero"/></clipPath><clipPath id="6cfb25d91f"><path d="M 37.5 37.5 L 44 37.5 L 44 337.5 L 37.5 337.5 Z M 37.5 37.5 " clip-rule="nonzero"/></clipPath><clipPath id="a04d7adbca"><path d="M 37.5 331 L 74 331 L 74 337.5 L 37.5 337.5 Z M 37.5 331 " clip-rule="nonzero"/></clipPath><clipPath id="49dec49062"><path d="M 301 37.5 L 337.496094 37.5 L 337.496094 44 L 301 44 Z M 301 37.5 " clip-rule="nonzero"/></clipPath><clipPath id="72b039e51c"><path d="M 331 37.5 L 337.496094 37.5 L 337.496094 337.5 L 331 337.5 Z M 331 37.5 " clip-rule="nonzero"/></clipPath><clipPath id="1210643453"><path d="M 301 331 L 337.496094 331 L 337.496094 337.5 L 301 337.5 Z M 301 331 " clip-rule="nonzero"/></clipPath></defs><g clip-path="url(#d24053cd01)"><path fill="#000000" d="M 70.007812 37.535156 L 40.621094 37.535156 C 38.917969 37.535156 37.535156 38.917969 37.535156 40.621094 C 37.535156 42.328125 38.917969 43.710938 40.621094 43.710938 L 70.007812 43.710938 C 71.710938 43.710938 73.09375 42.328125 73.09375 40.621094 C 73.09375 38.917969 71.710938 37.535156 70.007812 37.535156 Z M 70.007812 37.535156 " fill-opacity="1" fill-rule="nonzero"/></g><g clip-path="url(#6cfb25d91f)"><path fill="#000000" d="M 37.535156 40.621094 L 37.535156 334.46875 C 37.535156 336.175781 38.917969 337.554688 40.621094 337.554688 C 42.328125 337.554688 43.710938 336.175781 43.710938 334.46875 L 43.710938 40.621094 C 43.710938 38.917969 42.328125 37.535156 40.621094 37.535156 C 38.917969 37.535156 37.535156 38.917969 37.535156 40.621094 Z M 37.535156 40.621094 " fill-opacity="1" fill-rule="nonzero"/></g><g clip-path="url(#a04d7adbca)"><path fill="#000000" d="M 40.621094 337.554688 L 70.007812 337.558594 C 71.710938 337.558594 73.09375 336.175781 73.09375 334.46875 C 73.09375 332.765625 71.710938 331.382812 70.007812 331.382812 L 40.621094 331.382812 C 38.917969 331.382812 37.535156 332.765625 37.535156 334.46875 C 37.535156 336.175781 38.917969 337.554688 40.621094 337.554688 Z M 40.621094 337.554688 " fill-opacity="1" fill-rule="nonzero"/></g><g clip-path="url(#49dec49062)"><path fill="#000000" d="M 304.988281 37.535156 L 334.375 37.535156 C 336.078125 37.535156 337.460938 38.917969 337.460938 40.621094 C 337.460938 42.328125 336.078125 43.710938 334.375 43.710938 L 304.988281 43.710938 C 303.285156 43.710938 301.902344 42.328125 301.902344 40.621094 C 301.902344 38.917969 303.285156 37.535156 304.988281 37.535156 Z M 304.988281 37.535156 " fill-opacity="1" fill-rule="nonzero"/></g><g clip-path="url(#72b039e51c)"><path fill="#000000" d="M 337.460938 40.621094 L 337.460938 334.46875 C 337.460938 336.175781 336.078125 337.554688 334.375 337.554688 C 332.667969 337.554688 331.289062 336.175781 331.289062 334.46875 L 331.289062 40.621094 C 331.289062 38.917969 332.667969 37.535156 334.375 37.535156 C 336.078125 37.535156 337.460938 38.917969 337.460938 40.621094 Z M 337.460938 40.621094 " fill-opacity="1" fill-rule="nonzero"/></g><g clip-path="url(#1210643453)"><path fill="#000000" d="M 334.375 337.554688 L 304.988281 337.558594 C 303.285156 337.558594 301.902344 336.175781 301.902344 334.46875 C 301.902344 332.765625 303.285156 331.382812 304.988281 331.382812 L 334.375 331.382812 C 336.078125 331.382812 337.460938 332.765625 337.460938 334.46875 C 337.460938 336.175781 336.078125 337.554688 334.375 337.554688 Z M 334.375 337.554688 " fill-opacity="1" fill-rule="nonzero"/></g><g fill="#000000" fill-opacity="1"><g transform="translate(88.507263, 65.993433)"><g><path d="M 24.703125 0 L 18.78125 0 L 18.78125 -19.859375 L 1.3125 -50.578125 L 7.8125 -50.578125 L 21.453125 -26.890625 L 22.3125 -26.890625 L 35.84375 -50.578125 L 42.21875 -50.578125 L 24.703125 -19.859375 Z M 24.703125 0 "/></g></g></g><g fill="#000000" fill-opacity="1"><g transform="translate(131.991706, 65.993433)"><g><path d="M 27.75 0.734375 C 23.363281 0.734375 19.460938 -0.210938 16.046875 -2.109375 C 12.640625 -4.003906 9.953125 -6.894531 7.984375 -10.78125 C 6.023438 -14.664062 5.046875 -19.503906 5.046875 -25.296875 C 5.046875 -31.078125 6.023438 -35.910156 7.984375 -39.796875 C 9.953125 -43.691406 12.640625 -46.582031 16.046875 -48.46875 C 19.460938 -50.363281 23.363281 -51.3125 27.75 -51.3125 C 32.132812 -51.3125 36.03125 -50.363281 39.4375 -48.46875 C 42.851562 -46.582031 45.539062 -43.691406 47.5 -39.796875 C 49.46875 -35.910156 50.453125 -31.078125 50.453125 -25.296875 C 50.453125 -19.503906 49.46875 -14.664062 47.5 -10.78125 C 45.539062 -6.894531 42.851562 -4.003906 39.4375 -2.109375 C 36.03125 -0.210938 32.132812 0.734375 27.75 0.734375 Z M 27.75 -4.78125 C 33.007812 -4.78125 37.046875 -6.421875 39.859375 -9.703125 C 42.671875 -12.992188 44.078125 -18.191406 44.078125 -25.296875 C 44.078125 -32.398438 42.671875 -37.59375 39.859375 -40.875 C 37.046875 -44.164062 33.007812 -45.8125 27.75 -45.8125 C 16.863281 -45.8125 11.421875 -38.972656 11.421875 -25.296875 C 11.421875 -11.617188 16.863281 -4.78125 27.75 -4.78125 Z M 27.75 -4.78125 "/></g></g></g><g fill="#000000" fill-opacity="1"><g transform="translate(187.480174, 65.993433)"><g><path d="M 26.09375 0.734375 C 19.882812 0.734375 15.1875 -0.835938 12 -3.984375 C 8.820312 -7.140625 7.234375 -11.804688 7.234375 -17.984375 L 7.234375 -50.578125 L 13.140625 -50.578125 L 13.140625 -18.0625 C 13.140625 -13.632812 14.207031 -10.3125 16.34375 -8.09375 C 18.476562 -5.882812 21.726562 -4.78125 26.09375 -4.78125 C 34.71875 -4.78125 39.03125 -9.207031 39.03125 -18.0625 L 39.03125 -50.578125 L 44.9375 -50.578125 L 44.9375 -17.984375 C 44.9375 -11.804688 43.34375 -7.140625 40.15625 -3.984375 C 36.976562 -0.835938 32.289062 0.734375 26.09375 0.734375 Z M 26.09375 0.734375 "/></g></g></g><g fill="#000000" fill-opacity="1"><g transform="translate(239.613068, 65.993433)"><g><path d="M 7.640625 0 L 7.640625 -50.578125 L 26.015625 -50.578125 C 29.410156 -50.578125 32.257812 -50.019531 34.5625 -48.90625 C 36.875 -47.789062 38.601562 -46.210938 39.75 -44.171875 C 40.90625 -42.128906 41.484375 -39.710938 41.484375 -36.921875 C 41.484375 -33.785156 40.695312 -31.195312 39.125 -29.15625 C 37.5625 -27.113281 35.117188 -25.582031 31.796875 -24.5625 L 31.796875 -23.84375 C 33.429688 -23.195312 34.769531 -22.179688 35.8125 -20.796875 C 36.851562 -19.410156 37.8125 -17.34375 38.6875 -14.59375 L 43.359375 0 L 37.234375 0 L 32.171875 -15.46875 C 31.578125 -17.289062 30.882812 -18.71875 30.09375 -19.75 C 29.3125 -20.789062 28.320312 -21.539062 27.125 -22 C 25.925781 -22.46875 24.40625 -22.703125 22.5625 -22.703125 L 13.59375 -22.703125 L 13.59375 0 Z M 25.875 -27.75 C 29.039062 -27.75 31.394531 -28.476562 32.9375 -29.9375 C 34.476562 -31.40625 35.25 -33.640625 35.25 -36.640625 C 35.25 -39.640625 34.476562 -41.867188 32.9375 -43.328125 C 31.394531 -44.796875 29.039062 -45.53125 25.875 -45.53125 L 13.59375 -45.53125 L 13.59375 -27.75 Z M 25.875 -27.75 "/></g></g></g><g fill="#000000" fill-opacity="1"><g transform="translate(56.202295, 223.596905)"><g><path d="M 21.34375 -65.125 L 21.34375 -10.78125 L 50.609375 -10.78125 L 50.609375 0 L 8.46875 0 L 8.46875 -65.125 Z M 21.34375 -65.125 "/></g></g></g><g fill="#000000" fill-opacity="1"><g transform="translate(108.940812, 223.596905)"><g><path d="M 35.5 0.9375 C 29.53125 0.9375 24.265625 -0.28125 19.703125 -2.71875 C 15.148438 -5.15625 11.582031 -8.875 9 -13.875 C 6.414062 -18.882812 5.125 -25.113281 5.125 -32.5625 C 5.125 -40.019531 6.414062 -46.25 9 -51.25 C 11.582031 -56.257812 15.148438 -59.976562 19.703125 -62.40625 C 24.265625 -64.84375 29.53125 -66.0625 35.5 -66.0625 C 41.46875 -66.0625 46.722656 -64.847656 51.265625 -62.421875 C 55.816406 -60.003906 59.375 -56.285156 61.9375 -51.265625 C 64.507812 -46.253906 65.796875 -40.019531 65.796875 -32.5625 C 65.796875 -25.113281 64.507812 -18.878906 61.9375 -13.859375 C 59.375 -8.835938 55.816406 -5.113281 51.265625 -2.6875 C 46.722656 -0.269531 41.46875 0.9375 35.5 0.9375 Z M 35.5 -10.25 C 41.03125 -10.25 45.25 -12.019531 48.15625 -15.5625 C 51.0625 -19.113281 52.515625 -24.78125 52.515625 -32.5625 C 52.515625 -40.34375 51.0625 -46.015625 48.15625 -49.578125 C 45.25 -53.140625 41.03125 -54.921875 35.5 -54.921875 C 29.945312 -54.921875 25.707031 -53.140625 22.78125 -49.578125 C 19.851562 -46.015625 18.390625 -40.34375 18.390625 -32.5625 C 18.390625 -24.78125 19.851562 -19.113281 22.78125 -15.5625 C 25.707031 -12.019531 29.945312 -10.25 35.5 -10.25 Z M 35.5 -10.25 "/></g></g></g><g fill="#000000" fill-opacity="1"><g transform="translate(179.89728, 223.596905)"><g><path d="M 31.625 0.9375 C 26.195312 0.9375 21.5 -0.300781 17.53125 -2.78125 C 13.5625 -5.257812 10.5 -9 8.34375 -14 C 6.195312 -19.007812 5.125 -25.195312 5.125 -32.5625 C 5.125 -39.988281 6.414062 -46.203125 9 -51.203125 C 11.582031 -56.210938 15.164062 -59.941406 19.75 -62.390625 C 24.34375 -64.835938 29.671875 -66.0625 35.734375 -66.0625 C 41.960938 -66.0625 47.273438 -64.898438 51.671875 -62.578125 C 56.066406 -60.265625 59.15625 -56.820312 60.9375 -52.25 L 51.546875 -46.546875 L 50.421875 -46.59375 C 49.085938 -49.507812 47.207031 -51.632812 44.78125 -52.96875 C 42.363281 -54.300781 39.347656 -54.96875 35.734375 -54.96875 C 30.117188 -54.96875 25.820312 -53.191406 22.84375 -49.640625 C 19.875 -46.097656 18.390625 -40.40625 18.390625 -32.5625 C 18.390625 -24.695312 19.78125 -18.976562 22.5625 -15.40625 C 25.34375 -11.84375 29.445312 -10.0625 34.875 -10.0625 C 39.570312 -10.0625 43.035156 -11.113281 45.265625 -13.21875 C 47.492188 -15.332031 48.609375 -18.484375 48.609375 -22.671875 L 48.609375 -25.484375 L 33.1875 -25.484375 L 33.1875 -35.953125 L 61.390625 -35.953125 L 61.390625 0 L 49.09375 0 L 49.09375 -8.734375 L 48.15625 -8.859375 C 46.820312 -5.742188 44.796875 -3.332031 42.078125 -1.625 C 39.359375 0.0820312 35.875 0.9375 31.625 0.9375 Z M 31.625 0.9375 "/></g></g></g><g fill="#000000" fill-opacity="1"><g transform="translate(247.824846, 223.596905)"><g><path d="M 35.5 0.9375 C 29.53125 0.9375 24.265625 -0.28125 19.703125 -2.71875 C 15.148438 -5.15625 11.582031 -8.875 9 -13.875 C 6.414062 -18.882812 5.125 -25.113281 5.125 -32.5625 C 5.125 -40.019531 6.414062 -46.25 9 -51.25 C 11.582031 -56.257812 15.148438 -59.976562 19.703125 -62.40625 C 24.265625 -64.84375 29.53125 -66.0625 35.5 -66.0625 C 41.46875 -66.0625 46.722656 -64.847656 51.265625 -62.421875 C 55.816406 -60.003906 59.375 -56.285156 61.9375 -51.265625 C 64.507812 -46.253906 65.796875 -40.019531 65.796875 -32.5625 C 65.796875 -25.113281 64.507812 -18.878906 61.9375 -13.859375 C 59.375 -8.835938 55.816406 -5.113281 51.265625 -2.6875 C 46.722656 -0.269531 41.46875 0.9375 35.5 0.9375 Z M 35.5 -10.25 C 41.03125 -10.25 45.25 -12.019531 48.15625 -15.5625 C 51.0625 -19.113281 52.515625 -24.78125 52.515625 -32.5625 C 52.515625 -40.34375 51.0625 -46.015625 48.15625 -49.578125 C 45.25 -53.140625 41.03125 -54.921875 35.5 -54.921875 C 29.945312 -54.921875 25.707031 -53.140625 22.78125 -49.578125 C 19.851562 -46.015625 18.390625 -40.34375 18.390625 -32.5625 C 18.390625 -24.78125 19.851562 -19.113281 22.78125 -15.5625 C 25.707031 -12.019531 29.945312 -10.25 35.5 -10.25 Z M 35.5 -10.25 "/></g></g></g><g fill="#000000" fill-opacity="1"><g transform="translate(94.605913, 358.833783)"><g><path d="M 39.890625 -30.0625 L 39.890625 -50.578125 L 45.8125 -50.578125 L 45.8125 0 L 39.890625 0 L 39.890625 -25.015625 L 13.59375 -25.015625 L 13.59375 0 L 7.640625 0 L 7.640625 -50.578125 L 13.59375 -50.578125 L 13.59375 -30.0625 Z M 39.890625 -30.0625 "/></g></g></g><g fill="#000000" fill-opacity="1"><g transform="translate(148.08794, 358.833783)"><g><path d="M 13.59375 -23.84375 L 13.59375 -4.90625 L 39.375 -4.90625 L 39.375 0 L 7.640625 0 L 7.640625 -50.578125 L 38.828125 -50.578125 L 38.828125 -45.671875 L 13.59375 -45.671875 L 13.59375 -28.75 L 35.84375 -28.75 L 35.84375 -23.84375 Z M 13.59375 -23.84375 "/></g></g></g><g fill="#000000" fill-opacity="1"><g transform="translate(190.811319, 358.833783)"><g><path d="M 7.640625 0 L 7.640625 -50.578125 L 26.015625 -50.578125 C 29.410156 -50.578125 32.257812 -50.019531 34.5625 -48.90625 C 36.875 -47.789062 38.601562 -46.210938 39.75 -44.171875 C 40.90625 -42.128906 41.484375 -39.710938 41.484375 -36.921875 C 41.484375 -33.785156 40.695312 -31.195312 39.125 -29.15625 C 37.5625 -27.113281 35.117188 -25.582031 31.796875 -24.5625 L 31.796875 -23.84375 C 33.429688 -23.195312 34.769531 -22.179688 35.8125 -20.796875 C 36.851562 -19.410156 37.8125 -17.34375 38.6875 -14.59375 L 43.359375 0 L 37.234375 0 L 32.171875 -15.46875 C 31.578125 -17.289062 30.882812 -18.71875 30.09375 -19.75 C 29.3125 -20.789062 28.320312 -21.539062 27.125 -22 C 25.925781 -22.46875 24.40625 -22.703125 22.5625 -22.703125 L 13.59375 -22.703125 L 13.59375 0 Z M 25.875 -27.75 C 29.039062 -27.75 31.394531 -28.476562 32.9375 -29.9375 C 34.476562 -31.40625 35.25 -33.640625 35.25 -36.640625 C 35.25 -39.640625 34.476562 -41.867188 32.9375 -43.328125 C 31.394531 -44.796875 29.039062 -45.53125 25.875 -45.53125 L 13.59375 -45.53125 L 13.59375 -27.75 Z M 25.875 -27.75 "/></g></g></g><g fill="#000000" fill-opacity="1"><g transform="translate(237.651335, 358.833783)"><g><path d="M 13.59375 -23.84375 L 13.59375 -4.90625 L 39.375 -4.90625 L 39.375 0 L 7.640625 0 L 7.640625 -50.578125 L 38.828125 -50.578125 L 38.828125 -45.671875 L 13.59375 -45.671875 L 13.59375 -28.75 L 35.84375 -28.75 L 35.84375 -23.84375 Z M 13.59375 -23.84375 "/></g></g></g></svg>